<?xml version="1.0" encoding="utf-8"?>
<!-- Generator: Adobe Illustrator 16.0.0, SVG Export Plug-In . SVG Version: 6.00 Build 0)  -->
<!DOCTYPE svg PUBLIC "-//W3C//DTD SVG 1.1//EN" "http://www.w3.org/Graphics/SVG/1.1/DTD/svg11.dtd">
<svg version="1.1" id="Layer_1" xmlns="http://www.w3.org/2000/svg" xmlns:xlink="http://www.w3.org/1999/xlink" x="0px" y="0px"
	 width="612px" height="180px" viewBox="0 304.5 612 180" enable-background="new 0 304.5 612 180" xml:space="preserve">
<g id="形状_4_3_" enable-background="new    ">
	<g id="形状_4">
		<g>
			<path fill="#FFFFFF" d="M409.992,386.079c-9.802-5.499-21.157-7.053-31.915-6.813l28.927-41.358
				c2.63-3.706,4.184-6.096,4.184-7.889v-10.758c0-1.793-1.435-3.107-3.228-3.107h-55.94c-1.674,0-3.107,1.314-3.107,3.107v12.432
				c0,1.912,1.434,3.107,3.227,3.107h29.166l-33.469,48.41c-2.032,3.108-2.032,6.574-2.032,8.606v12.551
				c0,1.793,2.032,3.944,3.944,2.869c19.006-10.16,41.836-9.085,59.049-0.12c2.151,1.076,4.064-1.075,4.064-2.868v-13.269
				C412.741,389.187,412.144,387.394,409.992,386.079z M215.396,314.599c-10.041,0-19.364,5.14-23.548,16.137
				c-4.781-10.997-11.475-16.137-22.113-16.137c-10.519,0-18.288,5.14-22.353,16.137h-0.358V319.38
				c-0.12-1.554-1.435-2.869-3.108-2.988h-15.897c-1.793,0-3.228,1.435-3.228,3.108v87.377c0.12,1.555,1.435,2.75,2.988,2.869
				h16.974c1.793,0,3.227-1.435,3.227-3.107V360.38c0-10.16-0.478-24.026,11.714-24.026c12.073,0,10.519,14.344,10.519,24.026
				v46.259c0,1.673,1.315,2.988,3.108,3.107h16.974c1.793,0,3.227-1.435,3.227-3.107V360.38c0-5.021-0.12-12.312,1.554-16.734
				c1.793-4.423,6.096-7.172,10.16-7.172c4.9,0,8.726,1.673,10.041,7.53c0.836,3.466,0.478,12.67,0.478,16.376v46.259
				c0,1.673,1.315,2.988,3.108,3.107h16.973c1.793,0,3.228-1.435,3.228-3.107v-55.104c0-9.323,1.076-20.081-4.303-27.373
				C230.337,317.587,222.448,314.599,215.396,314.599z M459.358,314.599c-24.623,0-38.25,21.157-38.25,48.291
				c0,27.014,13.507,48.649,38.25,48.649c23.787,0,38.968-21.157,38.968-47.812C498.326,336.234,484.58,314.599,459.358,314.599z
				 M459.358,393.609c-13.388,0-13.148-22.831-13.148-33.469s0.837-27.731,13.388-27.731c5.379,0,9.204,2.391,11.116,8.487
				c2.271,6.933,2.511,15.778,2.511,23.189C473.225,375.202,472.507,393.609,459.358,393.609z M576.499,324.879
				c-4.781-7.53-12.192-10.28-19.842-10.28c-11.714,0-18.408,5.738-23.189,17.691h-0.358v-13.388
				c-0.358-1.315-1.554-2.391-2.988-2.391h-15.778c-1.673,0-3.107,1.315-3.228,2.869v87.377c0,1.674,1.315,2.988,3.108,3.107h16.974
				c1.793,0,3.227-1.434,3.347-3.107v-46.976c0-5.857,0.358-11.236,2.749-16.496c1.912-4.184,5.737-6.933,9.802-6.933
				c11.714,0,10.638,13.985,10.638,23.547v47.454c0.239,1.435,1.435,2.63,2.988,2.749h17.094c1.673,0,3.107-1.195,3.227-2.749
				v-54.984C580.922,343.646,580.922,331.931,576.499,324.879z M328.232,378.07v-26.536c0-11.236,0.837-21.516-7.53-29.285
				c-6.574-6.215-17.332-8.486-25.58-8.486c-16.137,0-34.305,6.096-38.011,26.058c-0.359,2.151,1.195,3.228,2.51,3.586l16.495,1.793
				c1.554-0.12,2.63-1.554,2.988-3.108c1.435-6.933,7.172-10.28,13.626-10.28c3.466,0,7.531,1.315,9.562,4.423
				c2.391,3.466,2.032,8.248,2.032,12.312v2.152c-9.921,1.076-22.711,1.793-32.035,5.857c-10.638,4.662-18.168,13.985-18.168,27.851
				c0,17.69,11.116,26.536,25.46,26.536c12.073,0,18.767-2.869,28.09-12.312c3.107,4.423,4.063,6.693,9.801,11.355
				c1.315,0.717,2.869,0.598,4.064-0.358l0,0c3.347-2.988,9.562-8.367,13.029-11.355c1.434-1.076,1.195-2.989,0-4.542
				C331.46,389.545,328.232,385.959,328.232,378.07z M301.099,386.198c-2.749,4.781-7.052,7.77-11.833,7.77
				c-6.574,0-10.399-5.02-10.399-12.312c0-14.463,13.029-17.093,25.341-17.093v3.705
				C304.327,374.724,304.446,380.222,301.099,386.198z M105.068,378.07v-26.536c0-11.236,0.837-21.516-7.53-29.285
				c-6.574-6.215-17.332-8.486-25.58-8.486c-16.137,0-34.306,6.096-38.011,26.058c-0.358,2.151,1.195,3.228,2.51,3.586l16.495,1.793
				c1.554-0.12,2.63-1.554,2.988-3.108c1.435-6.933,7.172-10.28,13.627-10.28c3.466,0,7.53,1.315,9.562,4.423
				c2.391,3.466,2.032,8.248,2.032,12.312v2.152c-9.921,1.076-22.711,1.793-32.034,5.857c-10.519,4.781-18.049,14.104-18.049,27.97
				c0,17.691,11.116,26.536,25.46,26.536c12.073,0,18.767-2.868,28.09-12.312c3.108,4.423,4.064,6.694,9.802,11.355
				c1.315,0.718,2.869,0.598,4.064-0.358l0,0c3.347-2.988,9.562-8.367,13.029-11.355c1.435-1.076,1.195-2.988,0-4.542
				C108.415,389.545,105.068,385.959,105.068,378.07z M78.054,386.198c-2.749,4.781-7.052,7.77-11.833,7.77
				c-6.574,0-10.399-5.02-10.399-12.312c0-14.463,13.029-17.093,25.34-17.093v3.705C81.281,374.724,81.401,380.222,78.054,386.198z"
				/>
		</g>
	</g>
</g>
<g id="形状_4_2_" enable-background="new    ">
	<g id="形状_4_1_">
		<g>
			<path fill="#F2941B" d="M367.559,435.924c-35.859,15.18-74.707,22.591-110.088,22.591c-52.474,0-103.275-14.344-144.394-38.25
				c-3.586-2.151-6.216,1.554-3.228,4.304c38.13,34.425,88.453,55.104,144.274,55.104c39.923,0,86.182-12.551,118.097-36.099
				C377.479,439.39,372.938,433.533,367.559,435.924z M399.115,417.755c-3.467-4.304-33.469-8.009-51.758,4.781
				c-2.868,2.032-2.271,4.661,0.837,4.303c10.28-1.195,33.229-3.944,37.294,1.195c4.064,5.26-4.542,26.775-8.367,36.457
				c-1.195,2.869,1.314,4.064,3.944,1.913C398.158,452.061,402.581,422.058,399.115,417.755z"/>
		</g>
	</g>
</g>
</svg>
